BBC Symphony - 2. Beethoven and Beyond

Simon Russell Beale continues his journey into the world of the symphony with the story of the revolutionary later symphonies of Ludwig van Beethoven and their phenomenal impact. We also meet Franz Schubert, whose two greatest symphonies were only discovered after his tragic early death, the obsessive French Romantic Hector Berlioz and the flamboyant pianist-turned-composer Franz Liszt. The music is performed by the Orchestra of the Age of Enlightenment and the Halle, conducted by Sir Mark Elder.

Format profile                           : Base Media
Codec ID                                 : isom
File size                                : 1.06 GiB
Duration                                 : 59mn 4s
Overall bit rate                         : 2 560 Kbps
Writing application                      : Lavf53.13.0

Video
ID                                       : 1
Format                                   : AVC
Format/Info                              : Advanced Video Codec
Format profile                           : High@L4.1
Format settings, CABAC                   : Yes
Format settings, ReFrames                : 6 frames
Codec ID                                 : avc1
Codec ID/Info                            : Advanced Video Coding
Duration                                 : 59mn 4s
Bit rate mode                            : Variable
Bit rate                                 : 2 459 Kbps
Maximum bit rate                         : 3 500 Kbps
Width                                    : 1 280 pixels
Height                                   : 720 pixels
Display aspect ratio                     : 16:9
Frame rate mode                          : Constant
Frame rate                               : 25.000 fps
Standard                                 : PAL
Color space                              : YUV
Chroma subsampling                       : 4:2:0
Bit depth                                : 8 bits
Scan type                                : Progressive
Bits/(Pixel*Frame)                       : 0.107
Stream size                              : 1.01 GiB (96%)

Audio
ID                                       : 2
Format                                   : AAC
Format/Info                              : Advanced Audio Codec
Format profile                           : HE-AAC / LC
Codec ID                                 : 40
Duration                                 : 59mn 4s
Bit rate mode                            : Constant
Bit rate                                 : 96.0 Kbps
Channel(s)                               : 2 channels
Channel positions                        : Front: L R
Sampling rate                            : 48.0 KHz / 24.0 KHz
Compression mode                         : Lossy
Stream size                              : 40.0 MiB